<svg width="20" height="20" viewBox="0 0 20 20" fill="none" xmlns="http://www.w3.org/2000/svg">
<path d="M26.4994 42.7258L13.6542 50.5225C13.0867 50.8863 12.4935 51.0422 11.8744 50.9902C11.2554 50.9383 10.7137 50.7304 10.2494 50.3665C9.78513 50.0027 9.42402 49.5484 9.16608 49.0037C8.90815 48.4569 8.85656 47.8456 9.01132 47.1699L12.4161 32.4342L1.04108 22.5324C0.52521 22.0646 0.203305 21.5313 0.0753682 20.9325C-0.0546318 20.3358 -0.0164574 19.7516 0.189892 19.1798C0.396241 18.6081 0.705765 18.1403 1.11846 17.7764C1.53116 17.4126 2.09862 17.1787 2.82084 17.0747L17.8327 15.7493L23.6363 1.8712C23.8943 1.24747 24.2946 0.779668 24.8373 0.467801C25.3779 0.155934 25.932 0 26.4994 0C27.0669 0 27.622 0.155934 28.1647 0.467801C28.7053 0.779668 29.1046 1.24747 29.3625 1.8712L35.1661 15.7493L50.178 17.0747C50.9002 17.1787 51.4677 17.4126 51.8804 17.7764C52.2931 18.1403 52.6026 18.6081 52.8089 19.1798C53.0153 19.7516 53.0545 20.3358 52.9266 20.9325C52.7966 21.5313 52.4736 22.0646 51.9577 22.5324L40.5827 32.4342L43.9875 47.1699C44.1423 47.8456 44.0907 48.4569 43.8327 49.0037C43.5748 49.5484 43.2137 50.0027 42.7494 50.3665C42.2851 50.7304 41.7435 50.9383 41.1244 50.9902C40.5054 51.0422 39.9121 50.8863 39.3447 50.5225L26.4994 42.7258Z" fill="#FCB838"/>
</svg>
