<svg width="54" height="51" viewBox="0 0 54 51" fill="none" xmlns="http://www.w3.org/2000/svg">
<path d="M13.5 9.80769V1.96154C13.5 1.44131 13.7032 0.942381 14.0649 0.574521C14.4265 0.206661 14.9171 0 15.4286 0C15.9401 0 16.4306 0.206661 16.7923 0.574521C17.154 0.942381 17.3571 1.44131 17.3571 1.96154V9.80769C17.3571 10.3279 17.154 10.8268 16.7923 11.1947C16.4306 11.5626 15.9401 11.7692 15.4286 11.7692C14.9171 11.7692 14.4265 11.5626 14.0649 11.1947C13.7032 10.8268 13.5 10.3279 13.5 9.80769ZM23.1429 11.7692C23.6543 11.7692 24.1449 11.5626 24.5066 11.1947C24.8682 10.8268 25.0714 10.3279 25.0714 9.80769V1.96154C25.0714 1.44131 24.8682 0.942381 24.5066 0.574521C24.1449 0.206661 23.6543 0 23.1429 0C22.6314 0 22.1408 0.206661 21.7792 0.574521C21.4175 0.942381 21.2143 1.44131 21.2143 1.96154V9.80769C21.2143 10.3279 21.4175 10.8268 21.7792 11.1947C22.1408 11.5626 22.6314 11.7692 23.1429 11.7692ZM30.8571 11.7692C31.3686 11.7692 31.8592 11.5626 32.2209 11.1947C32.5825 10.8268 32.7857 10.3279 32.7857 9.80769V1.96154C32.7857 1.44131 32.5825 0.942381 32.2209 0.574521C31.8592 0.206661 31.3686 0 30.8571 0C30.3457 0 29.8551 0.206661 29.4934 0.574521C29.1318 0.942381 28.9286 1.44131 28.9286 1.96154V9.80769C28.9286 10.3279 29.1318 10.8268 29.4934 11.1947C29.8551 11.5626 30.3457 11.7692 30.8571 11.7692ZM54 25.5V27.4615C53.9987 29.9557 53.0631 32.3556 51.3837 34.173C49.7043 35.9904 47.4072 37.0888 44.9598 37.2447C43.6315 41.0235 41.3937 44.4038 38.4509 47.0769H44.3571C44.8686 47.0769 45.3592 47.2836 45.7209 47.6514C46.0825 48.0193 46.2857 48.5182 46.2857 49.0385C46.2857 49.5587 46.0825 50.0576 45.7209 50.4255C45.3592 50.7933 44.8686 51 44.3571 51H1.92857C1.41708 51 0.926543 50.7933 0.564865 50.4255C0.203188 50.0576 0 49.5587 0 49.0385C0 48.5182 0.203188 48.0193 0.564865 47.6514C0.926543 47.2836 1.41708 47.0769 1.92857 47.0769H7.83482C5.37716 44.864 3.40829 42.1466 2.05786 39.1037C0.707436 36.0609 0.00608619 32.7616 0 29.4231V17.6538C0 17.1336 0.203188 16.6347 0.564865 16.2668C0.926543 15.899 1.41708 15.6923 1.92857 15.6923H44.3571C46.9146 15.6923 49.3673 16.7256 51.1757 18.5649C52.9841 20.4042 54 22.8988 54 25.5ZM50.1429 25.5C50.1415 24.2842 49.7699 23.0988 49.0793 22.1065C48.3886 21.1142 47.4127 20.3639 46.2857 19.9587V29.4231C46.2872 30.655 46.1905 31.885 45.9964 33.101C47.193 32.7414 48.2433 31.998 48.9905 30.9817C49.7378 29.9654 50.142 28.7306 50.1429 27.4615V25.5Z" fill="#7D5A5A"/>
</svg>
