<svg width="62" height="60" viewBox="0 0 62 60" fill="none" xmlns="http://www.w3.org/2000/svg">
<path d="M0.0163574 56.9401V47.7603C0.0163574 47.0973 0.118355 46.4598 0.322349 45.8479C0.526344 45.2359 0.832337 44.6494 1.24033 44.0884L26.7907 9.66426L23.2718 4.92138C23.0168 4.56439 22.8383 4.19414 22.7363 3.81062C22.6343 3.42915 22.6088 3.04666 22.6598 2.66315C22.7108 2.28168 22.8383 1.91245 23.0423 1.55546C23.2463 1.19847 23.5268 0.892477 23.8838 0.637484C24.5977 0.127496 25.3627 -0.076498 26.1787 0.0254994C26.9947 0.127497 27.6577 0.535486 28.1677 1.24947L30.6156 4.53889L33.0635 1.24947C33.5735 0.535486 34.2365 0.127497 35.0525 0.0254994C35.8685 -0.076498 36.6334 0.127496 37.3474 0.637484C38.0614 1.14747 38.4694 1.81045 38.5714 2.62643C38.6734 3.44241 38.4694 4.20739 37.9594 4.92138L34.4405 9.66426L59.9909 44.0884C60.3988 44.6494 60.7048 45.2359 60.9088 45.8479C61.1128 46.4598 61.2148 47.0973 61.2148 47.7603V56.9401C61.2148 57.8071 60.9211 58.5333 60.3336 59.1187C59.7481 59.7062 59.0219 60 58.1549 60H3.07628C2.2093 60 1.48308 59.7062 0.897616 59.1187C0.31011 58.5333 0.0163574 57.8071 0.0163574 56.9401ZM19.0644 53.8802H42.1668L30.6156 37.7391L19.0644 53.8802Z" fill="#876C4B"/>
</svg>
