<svg width="45" height="45" viewBox="0 0 45 45" fill="none" xmlns="http://www.w3.org/2000/svg">
<path d="M28.375 44.1601L15 39.4726L3.375 43.9726C2.54167 44.306 1.77083 44.2118 1.0625 43.6901C0.354167 43.1701 0 42.4726 0 41.5976V6.59763C0 6.05596 0.156667 5.5768 0.47 5.16013C0.781667 4.74346 1.20833 4.43096 1.75 4.22263L13.375 0.285128C13.9167 0.118461 14.4583 0.0242944 15 0.00262774C15.5417 -0.0173723 16.0833 0.0767942 16.625 0.285128L30 4.97263L41.625 0.472628C42.4583 0.139294 43.2292 0.232628 43.9375 0.752628C44.6458 1.27429 45 1.97263 45 2.84763V37.8476C45 38.3893 44.8433 38.8685 44.53 39.2851C44.2183 39.7018 43.7917 40.0143 43.25 40.2226L31.625 44.1601C31.0833 44.3268 30.5417 44.4201 30 44.4401C29.4583 44.4618 28.9167 44.3685 28.375 44.1601ZM27.5 38.5976V9.34763L17.5 5.84763V35.0976L27.5 38.5976Z" fill="#7D5A5A"/>
</svg>
