<svg width="103" height="29" viewBox="0 0 103 29" fill="none" xmlns="http://www.w3.org/2000/svg">
<path d="M3.06 21.564C2.196 21.564 1.62 21.444 1.332 21.204C1.044 20.964 1.044 20.736 1.332 20.52C1.62 20.28 2.196 20.16 3.06 20.16C2.388 20.16 1.884 20.004 1.548 19.692C1.212 19.38 1.044 19.032 1.044 18.648C1.044 18.24 1.212 17.892 1.548 17.604C1.884 17.292 2.388 17.136 3.06 17.136C2.412 17.136 1.932 17.004 1.62 16.74C1.308 16.476 1.152 16.176 1.152 15.84C1.152 15.504 1.308 15.204 1.62 14.94C1.932 14.676 2.412 14.544 3.06 14.544C2.484 14.544 2.04 14.364 1.728 14.004C1.44 13.644 1.296 13.224 1.296 12.744C1.296 12.264 1.44 11.844 1.728 11.484C2.04 11.124 2.484 10.944 3.06 10.944C2.22 10.944 1.656 10.776 1.368 10.44C1.08 10.104 1.08 9.768 1.368 9.432C1.656 9.096 2.22 8.928 3.06 8.928C2.34 8.928 1.8 8.784 1.44 8.496C1.104 8.184 0.936 7.836 0.936 7.452C0.936 7.044 1.104 6.696 1.44 6.408C1.8 6.096 2.34 5.94 3.06 5.94C2.652 5.748 2.412 5.46 2.34 5.076C2.268 4.668 2.316 4.272 2.484 3.888C2.676 3.48 2.94 3.168 3.276 2.952C3.612 2.736 3.984 2.712 4.392 2.88C4.392 2.304 4.572 1.884 4.932 1.62C5.292 1.332 5.712 1.188 6.192 1.188C6.672 1.188 7.092 1.332 7.452 1.62C7.812 1.884 7.992 2.304 7.992 2.88C8.256 2.52 8.556 2.328 8.892 2.304C9.228 2.256 9.528 2.328 9.792 2.52C10.056 2.712 10.224 2.976 10.296 3.312C10.392 3.648 10.308 3.996 10.044 4.356C10.668 4.356 11.136 4.572 11.448 5.004C11.784 5.412 11.952 5.892 11.952 6.444C11.952 6.972 11.784 7.452 11.448 7.884C11.136 8.292 10.668 8.496 10.044 8.496C10.644 8.496 11.088 8.7 11.376 9.108C11.688 9.516 11.844 9.984 11.844 10.512C11.844 11.04 11.688 11.508 11.376 11.916C11.088 12.324 10.644 12.528 10.044 12.528C10.86 12.528 11.4 12.648 11.664 12.888C11.928 13.128 11.928 13.368 11.664 13.608C11.4 13.848 10.86 13.968 10.044 13.968C10.86 13.968 11.424 14.124 11.736 14.436C12.048 14.748 12.096 15.084 11.88 15.444C11.688 15.78 11.244 15.996 10.548 16.092C11.196 16.116 11.688 16.416 12.024 16.992C12.384 17.568 12.54 18.156 12.492 18.756C12.972 18.636 13.464 18.624 13.968 18.72C14.472 18.816 14.892 19.032 15.228 19.368C15.588 19.704 15.768 20.148 15.768 20.7C15.768 20.172 15.936 19.752 16.272 19.44C16.632 19.128 17.052 18.924 17.532 18.828C18.036 18.732 18.54 18.732 19.044 18.828C19.548 18.924 19.968 19.128 20.304 19.44C20.64 19.752 20.808 20.172 20.808 20.7C21.432 20.652 21.912 20.748 22.248 20.988C22.584 21.228 22.764 21.528 22.788 21.888C22.812 22.224 22.668 22.536 22.356 22.824C22.068 23.112 21.612 23.268 20.988 23.292C21.372 23.652 21.54 24.048 21.492 24.48C21.468 24.912 21.3 25.308 20.988 25.668C20.676 26.004 20.304 26.22 19.872 26.316C19.44 26.388 19.032 26.256 18.648 25.92C18.648 26.496 18.444 26.916 18.036 27.18C17.628 27.468 17.16 27.612 16.632 27.612C16.104 27.612 15.636 27.468 15.228 27.18C14.82 26.916 14.616 26.496 14.616 25.92C14.616 26.52 14.388 26.976 13.932 27.288C13.5 27.6 12.984 27.756 12.384 27.756C11.784 27.756 11.256 27.6 10.8 27.288C10.368 26.976 10.152 26.52 10.152 25.92C10.152 26.52 9.936 26.976 9.504 27.288C9.072 27.6 8.568 27.756 7.992 27.756C7.416 27.756 6.912 27.6 6.48 27.288C6.048 26.976 5.832 26.52 5.832 25.92C5.832 26.64 5.688 27.144 5.4 27.432C5.112 27.744 4.776 27.768 4.392 27.504C4.032 27.24 3.708 26.64 3.42 25.704C3.156 24.744 3.036 23.364 3.06 21.564ZM32.1891 25.956C31.9731 26.412 31.6371 26.712 31.1811 26.856C30.7491 26.976 30.2691 26.976 29.7411 26.856C29.2371 26.712 28.7691 26.496 28.3371 26.208C27.9051 25.896 27.5811 25.524 27.3651 25.092C27.1731 24.66 27.1851 24.216 27.4011 23.76C26.9211 24.096 26.4651 24.216 26.0331 24.12C25.6011 24 25.2531 23.76 24.9891 23.4C24.7251 23.016 24.6051 22.608 24.6291 22.176C24.6771 21.72 24.9411 21.324 25.4211 20.988C24.9651 21.036 24.5691 20.904 24.2331 20.592C23.9211 20.256 23.6811 19.824 23.5131 19.296C23.3451 18.768 23.2611 18.228 23.2611 17.676C23.2851 17.124 23.4051 16.644 23.6211 16.236C23.8611 15.828 24.2091 15.6 24.6651 15.552C24.1131 15.528 23.6811 15.324 23.3691 14.94C23.0571 14.532 22.8531 14.052 22.7571 13.5C22.6851 12.924 22.7091 12.36 22.8291 11.808C22.9731 11.256 23.2131 10.8 23.5491 10.44C23.8851 10.08 24.3171 9.9 24.8451 9.9C24.5091 9.732 24.3171 9.444 24.2691 9.036C24.2451 8.628 24.3171 8.184 24.4851 7.704C24.6531 7.224 24.8811 6.78 25.1691 6.372C25.4811 5.94 25.8171 5.628 26.1771 5.436C26.5371 5.22 26.8731 5.196 27.1851 5.364C26.7291 4.764 26.5491 4.272 26.6451 3.888C26.7411 3.504 26.9931 3.312 27.4011 3.312C27.8091 3.312 28.2411 3.612 28.6971 4.212C28.4331 3.54 28.3851 2.976 28.5531 2.52C28.7211 2.064 29.0091 1.764 29.4171 1.62C29.8251 1.452 30.2451 1.476 30.6771 1.692C31.1331 1.884 31.4931 2.304 31.7571 2.952C31.6851 2.376 31.7691 1.92 32.0091 1.584C32.2491 1.248 32.5611 1.056 32.9451 1.008C33.3291 0.959998 33.6771 1.068 33.9891 1.332C34.3251 1.572 34.5411 1.98 34.6371 2.556C34.6851 2.004 34.9251 1.596 35.3571 1.332C35.8131 1.044 36.3291 0.875999 36.9051 0.827998C37.5051 0.779999 38.0931 0.851999 38.6691 1.044C39.2451 1.212 39.7131 1.488 40.0731 1.872C40.4331 2.232 40.5771 2.688 40.5051 3.24C40.8651 2.424 41.2731 1.956 41.7291 1.836C42.1851 1.716 42.5091 1.872 42.7011 2.304C42.9171 2.712 42.8451 3.324 42.4851 4.14C43.0131 3.42 43.4931 3.036 43.9251 2.988C44.3571 2.94 44.6091 3.132 44.6811 3.564C44.7531 3.972 44.5251 4.536 43.9971 5.256C44.5251 4.848 45.0051 4.668 45.4371 4.716C45.8931 4.74 46.2291 4.908 46.4451 5.22C46.6851 5.508 46.7571 5.868 46.6611 6.3C46.5651 6.732 46.2411 7.152 45.6891 7.56C46.2171 7.392 46.6491 7.404 46.9851 7.596C47.3211 7.764 47.5371 8.016 47.6331 8.352C47.7291 8.664 47.6811 8.988 47.4891 9.324C47.3211 9.636 46.9731 9.876 46.4451 10.044C46.9011 10.02 47.2611 10.188 47.5251 10.548C47.8131 10.884 48.0051 11.316 48.1011 11.844C48.2211 12.348 48.2451 12.864 48.1731 13.392C48.1011 13.92 47.9331 14.364 47.6691 14.724C47.4291 15.084 47.0811 15.276 46.6251 15.3C47.5131 15.3 48.1011 15.468 48.3891 15.804C48.6771 16.116 48.6651 16.428 48.3531 16.74C48.0651 17.052 47.4771 17.196 46.5891 17.172C47.1651 17.268 47.5611 17.544 47.7771 18C47.9931 18.432 48.0531 18.9 47.9571 19.404C47.8611 19.908 47.6331 20.328 47.2731 20.664C46.9131 20.976 46.4451 21.072 45.8691 20.952C46.1571 21.216 46.2651 21.564 46.1931 21.996C46.1211 22.428 45.9291 22.872 45.6171 23.328C45.3051 23.76 44.9331 24.144 44.5011 24.48C44.0931 24.816 43.6851 25.044 43.2771 25.164C42.8691 25.26 42.5211 25.176 42.2331 24.912C42.3771 25.464 42.2451 25.944 41.8371 26.352C41.4531 26.76 40.9491 27.048 40.3251 27.216C39.7011 27.384 39.1131 27.396 38.5611 27.252C38.0091 27.108 37.6611 26.76 37.5171 26.208C37.5891 27.528 37.1691 28.188 36.2571 28.188C35.3451 28.188 33.9891 27.444 32.1891 25.956ZM38.1291 20.592C37.5771 20.352 37.2771 19.992 37.2291 19.512C37.2051 19.008 37.3371 18.564 37.6251 18.18C37.9371 17.772 38.3451 17.58 38.8491 17.604C38.5371 17.436 38.3091 17.148 38.1651 16.74C38.0451 16.332 38.0091 15.9 38.0571 15.444C38.1051 14.988 38.2371 14.604 38.4531 14.292C38.6931 13.956 39.0171 13.788 39.4251 13.788C38.9451 13.812 38.5851 13.62 38.3451 13.212C38.1051 12.78 38.0091 12.312 38.0571 11.808C38.1291 11.28 38.3331 10.884 38.6691 10.62C38.2131 10.668 37.8171 10.488 37.4811 10.08C37.1451 9.672 37.0251 9.252 37.1211 8.82C36.8331 8.988 36.5331 9.036 36.2211 8.964C35.9331 8.868 35.7051 8.676 35.5371 8.388C35.4411 8.796 35.2011 9.108 34.8171 9.324C34.4331 9.516 34.0491 9.552 33.6651 9.432C33.7851 9.768 33.7971 10.128 33.7011 10.512C33.6051 10.896 33.4251 11.22 33.1611 11.484C32.8971 11.748 32.5731 11.88 32.1891 11.88C32.5251 11.976 32.7651 12.18 32.9091 12.492C33.0771 12.804 33.1371 13.152 33.0891 13.536C33.0651 13.896 32.9451 14.208 32.7291 14.472C32.5371 14.736 32.2491 14.868 31.8651 14.868C32.3691 14.844 32.7051 14.916 32.8731 15.084C33.0411 15.252 33.0411 15.432 32.8731 15.624C32.7051 15.792 32.3691 15.876 31.8651 15.876C32.4411 15.852 32.8491 15.996 33.0891 16.308C33.3531 16.596 33.4491 16.932 33.3771 17.316C33.3291 17.7 33.1131 18 32.7291 18.216C33.1371 18.264 33.5211 18.504 33.8811 18.936C34.2411 19.368 34.4331 19.812 34.4571 20.268C34.7931 19.908 35.2731 19.788 35.8971 19.908C36.5451 20.004 37.2891 20.232 38.1291 20.592ZM57.7558 25.704C57.4438 26.424 57.0598 26.844 56.6038 26.964C56.1718 27.06 55.8238 26.916 55.5598 26.532C55.2958 26.124 55.3198 25.56 55.6318 24.84C55.2718 25.272 54.8878 25.512 54.4798 25.56C54.0718 25.608 53.7118 25.512 53.3998 25.272C53.1118 25.032 52.9438 24.708 52.8958 24.3C52.8718 23.892 53.0398 23.472 53.3998 23.04C52.8718 23.28 52.3918 23.28 51.9598 23.04C51.5518 22.8 51.2278 22.44 50.9878 21.96C50.7718 21.48 50.6998 21 50.7718 20.52C50.8678 20.04 51.1678 19.68 51.6718 19.44C50.9998 19.488 50.4718 19.356 50.0878 19.044C49.7278 18.732 49.5238 18.36 49.4758 17.928C49.4518 17.472 49.5958 17.064 49.9078 16.704C50.2198 16.344 50.7118 16.14 51.3838 16.092C50.8078 16.092 50.3638 15.9 50.0518 15.516C49.7638 15.108 49.6198 14.652 49.6198 14.148C49.6198 13.62 49.7638 13.164 50.0518 12.78C50.3638 12.372 50.8078 12.168 51.3838 12.168C50.9998 12.096 50.7358 11.856 50.5918 11.448C50.4478 11.016 50.3998 10.524 50.4478 9.972C50.4958 9.42 50.6158 8.892 50.8078 8.388C50.9998 7.86 51.2518 7.44 51.5638 7.128C51.8758 6.816 52.2238 6.696 52.6078 6.768C52.1998 6.336 52.0438 5.868 52.1398 5.364C52.2598 4.836 52.5238 4.38 52.9318 3.996C53.3638 3.612 53.8318 3.396 54.3358 3.348C54.8638 3.276 55.3318 3.456 55.7398 3.888C55.4518 3.144 55.3798 2.592 55.5238 2.232C55.6918 1.872 55.9558 1.764 56.3158 1.908C56.6998 2.052 57.0478 2.496 57.3598 3.24C57.1678 2.496 57.2158 1.956 57.5038 1.62C57.8158 1.284 58.1758 1.2 58.5838 1.368C58.9918 1.536 59.2798 1.992 59.4478 2.736C59.4238 2.112 59.5918 1.632 59.9518 1.296C60.3358 0.959998 60.7798 0.779999 61.2838 0.755999C61.8118 0.731999 62.2798 0.863999 62.6878 1.152C63.0958 1.44 63.3118 1.896 63.3358 2.52C63.4078 1.896 63.5758 1.44 63.8398 1.152C64.1278 0.839999 64.4278 0.707999 64.7398 0.755999C65.0758 0.779999 65.3518 0.971998 65.5678 1.332C65.7838 1.668 65.8558 2.16 65.7838 2.808C65.9278 2.28 66.2158 1.932 66.6478 1.764C67.0798 1.596 67.5238 1.584 67.9798 1.728C68.4358 1.872 68.7958 2.124 69.0598 2.484C69.3238 2.844 69.3838 3.288 69.2398 3.816C69.5758 3.36 70.0078 3.156 70.5358 3.204C71.0638 3.252 71.5558 3.456 72.0118 3.816C72.4918 4.176 72.8158 4.608 72.9838 5.112C73.1758 5.592 73.0918 6.06 72.7318 6.516C73.2118 6.564 73.5478 6.732 73.7398 7.02C73.9558 7.308 74.0398 7.632 73.9918 7.992C73.9678 8.328 73.8238 8.628 73.5598 8.892C73.3198 9.132 72.9718 9.228 72.5158 9.18C72.5158 9.516 72.3238 9.792 71.9398 10.008C71.5798 10.224 71.1358 10.368 70.6078 10.44C70.0798 10.488 69.5398 10.488 68.9878 10.44C68.4598 10.368 68.0158 10.224 67.6558 10.008C67.2958 9.792 67.1158 9.516 67.1158 9.18C66.9238 9.636 66.6118 9.948 66.1798 10.116C65.7718 10.26 65.3158 10.284 64.8118 10.188C64.3318 10.092 63.8758 9.912 63.4438 9.648C63.0358 9.384 62.7358 9.06 62.5438 8.676C62.3758 9.06 62.0878 9.36 61.6798 9.576C61.2958 9.792 60.8998 9.876 60.4918 9.828C60.6838 10.26 60.6478 10.704 60.3838 11.16C60.1198 11.616 59.6758 11.832 59.0518 11.808C59.5318 11.928 59.8198 12.156 59.9158 12.492C60.0358 12.804 59.9758 13.104 59.7358 13.392C59.5198 13.68 59.1358 13.812 58.5838 13.788C59.2318 13.788 59.6638 13.98 59.8798 14.364C60.1198 14.724 60.1438 15.084 59.9518 15.444C59.7598 15.804 59.3638 15.984 58.7638 15.984C59.2918 15.984 59.6878 16.14 59.9518 16.452C60.2158 16.74 60.3478 17.088 60.3478 17.496C60.3478 17.904 60.2038 18.24 59.9158 18.504C60.2518 18.504 60.5398 18.612 60.7798 18.828C61.0438 19.044 61.2118 19.308 61.2838 19.62C61.6438 19.236 62.0878 19.032 62.6158 19.008C63.1438 18.984 63.5998 19.128 63.9838 19.44C63.9598 19.176 64.0198 18.996 64.1638 18.9C64.3318 18.804 64.5478 18.804 64.8118 18.9L64.7758 18.864C64.3438 18.672 64.0198 18.336 63.8038 17.856C63.6118 17.376 63.7078 16.872 64.0918 16.344C63.4198 16.344 62.9638 16.188 62.7238 15.876C62.5078 15.564 62.5078 15.264 62.7238 14.976C62.9638 14.664 63.4198 14.508 64.0918 14.508C63.3958 14.508 62.9278 14.376 62.6878 14.112C62.4718 13.848 62.4718 13.584 62.6878 13.32C62.9278 13.056 63.3958 12.924 64.0918 12.924C64.0918 12.54 64.2598 12.228 64.5958 11.988C64.9318 11.748 65.3518 11.592 65.8558 11.52C66.3598 11.424 66.8638 11.412 67.3678 11.484C67.8718 11.556 68.2918 11.712 68.6278 11.952C68.9638 12.192 69.1318 12.504 69.1318 12.888C69.1798 12.432 69.4438 12.12 69.9238 11.952C70.4278 11.76 70.9798 11.7 71.5798 11.772C72.2038 11.82 72.7318 11.988 73.1638 12.276C73.6198 12.54 73.8238 12.9 73.7758 13.356C74.4718 13.356 74.9998 13.5 75.3598 13.788C75.7198 14.076 75.8998 14.412 75.8998 14.796C75.8998 15.156 75.7198 15.48 75.3598 15.768C74.9998 16.056 74.4718 16.2 73.7758 16.2C74.4478 16.224 74.9398 16.428 75.2518 16.812C75.5638 17.172 75.7078 17.58 75.6838 18.036C75.6598 18.492 75.4678 18.876 75.1078 19.188C74.7478 19.5 74.2318 19.632 73.5598 19.584C74.0158 19.848 74.2438 20.244 74.2438 20.772C74.2678 21.3 74.1358 21.816 73.8478 22.32C73.5838 22.824 73.2238 23.208 72.7678 23.472C72.3118 23.712 71.8438 23.7 71.3638 23.436C71.6998 24.036 71.7838 24.576 71.6158 25.056C71.4718 25.536 71.1718 25.908 70.7158 26.172C70.2838 26.436 69.8158 26.532 69.3118 26.46C68.8078 26.364 68.3758 26.016 68.0158 25.416C68.2558 26.256 68.2438 26.856 67.9798 27.216C67.7398 27.576 67.4158 27.66 67.0078 27.468C66.5998 27.276 66.2878 26.772 66.0718 25.956C66.1438 26.7 65.8198 27.216 65.0998 27.504C64.4038 27.792 63.4078 27.792 62.1118 27.504C60.8398 27.24 59.3878 26.64 57.7558 25.704ZM86.0133 25.956C85.7973 26.412 85.4613 26.712 85.0053 26.856C84.5733 26.976 84.0933 26.976 83.5653 26.856C83.0613 26.712 82.5933 26.496 82.1613 26.208C81.7293 25.896 81.4053 25.524 81.1893 25.092C80.9973 24.66 81.0093 24.216 81.2253 23.76C80.7453 24.096 80.2893 24.216 79.8573 24.12C79.4253 24 79.0773 23.76 78.8133 23.4C78.5493 23.016 78.4293 22.608 78.4533 22.176C78.5013 21.72 78.7653 21.324 79.2453 20.988C78.7893 21.036 78.3933 20.904 78.0573 20.592C77.7453 20.256 77.5053 19.824 77.3373 19.296C77.1693 18.768 77.0853 18.228 77.0853 17.676C77.1093 17.124 77.2293 16.644 77.4453 16.236C77.6853 15.828 78.0333 15.6 78.4893 15.552C77.9373 15.528 77.5053 15.324 77.1933 14.94C76.8813 14.532 76.6773 14.052 76.5813 13.5C76.5093 12.924 76.5333 12.36 76.6533 11.808C76.7973 11.256 77.0373 10.8 77.3733 10.44C77.7093 10.08 78.1413 9.9 78.6693 9.9C78.3333 9.732 78.1413 9.444 78.0933 9.036C78.0693 8.628 78.1413 8.184 78.3093 7.704C78.4773 7.224 78.7053 6.78 78.9933 6.372C79.3053 5.94 79.6413 5.628 80.0013 5.436C80.3613 5.22 80.6973 5.196 81.0093 5.364C80.5533 4.764 80.3733 4.272 80.4693 3.888C80.5653 3.504 80.8173 3.312 81.2253 3.312C81.6333 3.312 82.0653 3.612 82.5213 4.212C82.2573 3.54 82.2093 2.976 82.3773 2.52C82.5453 2.064 82.8333 1.764 83.2413 1.62C83.6493 1.452 84.0693 1.476 84.5013 1.692C84.9573 1.884 85.3173 2.304 85.5813 2.952C85.5093 2.376 85.5933 1.92 85.8333 1.584C86.0733 1.248 86.3853 1.056 86.7693 1.008C87.1533 0.959998 87.5013 1.068 87.8133 1.332C88.1493 1.572 88.3653 1.98 88.4613 2.556C88.5093 2.004 88.7493 1.596 89.1813 1.332C89.6373 1.044 90.1533 0.875999 90.7293 0.827998C91.3293 0.779999 91.9173 0.851999 92.4933 1.044C93.0693 1.212 93.5373 1.488 93.8973 1.872C94.2573 2.232 94.4013 2.688 94.3293 3.24C94.6893 2.424 95.0973 1.956 95.5533 1.836C96.0093 1.716 96.3333 1.872 96.5253 2.304C96.7413 2.712 96.6693 3.324 96.3093 4.14C96.8373 3.42 97.3173 3.036 97.7493 2.988C98.1813 2.94 98.4333 3.132 98.5053 3.564C98.5773 3.972 98.3493 4.536 97.8213 5.256C98.3493 4.848 98.8293 4.668 99.2613 4.716C99.7173 4.74 100.053 4.908 100.269 5.22C100.509 5.508 100.581 5.868 100.485 6.3C100.389 6.732 100.065 7.152 99.5133 7.56C100.041 7.392 100.473 7.404 100.809 7.596C101.145 7.764 101.361 8.016 101.457 8.352C101.553 8.664 101.505 8.988 101.313 9.324C101.145 9.636 100.797 9.876 100.269 10.044C100.725 10.02 101.085 10.188 101.349 10.548C101.637 10.884 101.829 11.316 101.925 11.844C102.045 12.348 102.069 12.864 101.997 13.392C101.925 13.92 101.757 14.364 101.493 14.724C101.253 15.084 100.905 15.276 100.449 15.3C101.337 15.3 101.925 15.468 102.213 15.804C102.501 16.116 102.489 16.428 102.177 16.74C101.889 17.052 101.301 17.196 100.413 17.172C100.989 17.268 101.385 17.544 101.601 18C101.817 18.432 101.877 18.9 101.781 19.404C101.685 19.908 101.457 20.328 101.097 20.664C100.737 20.976 100.269 21.072 99.6933 20.952C99.9813 21.216 100.089 21.564 100.017 21.996C99.9453 22.428 99.7533 22.872 99.4413 23.328C99.1293 23.76 98.7573 24.144 98.3253 24.48C97.9173 24.816 97.5093 25.044 97.1013 25.164C96.6933 25.26 96.3453 25.176 96.0573 24.912C96.2013 25.464 96.0693 25.944 95.6613 26.352C95.2773 26.76 94.7733 27.048 94.1493 27.216C93.5253 27.384 92.9373 27.396 92.3853 27.252C91.8333 27.108 91.4853 26.76 91.3413 26.208C91.4133 27.528 90.9933 28.188 90.0813 28.188C89.1693 28.188 87.8133 27.444 86.0133 25.956ZM91.9533 20.592C91.4013 20.352 91.1013 19.992 91.0533 19.512C91.0293 19.008 91.1613 18.564 91.4493 18.18C91.7613 17.772 92.1693 17.58 92.6733 17.604C92.3613 17.436 92.1333 17.148 91.9893 16.74C91.8693 16.332 91.8333 15.9 91.8813 15.444C91.9293 14.988 92.0613 14.604 92.2773 14.292C92.5173 13.956 92.8413 13.788 93.2493 13.788C92.7693 13.812 92.4093 13.62 92.1693 13.212C91.9293 12.78 91.8333 12.312 91.8813 11.808C91.9533 11.28 92.1573 10.884 92.4933 10.62C92.0373 10.668 91.6413 10.488 91.3053 10.08C90.9693 9.672 90.8493 9.252 90.9453 8.82C90.6573 8.988 90.3573 9.036 90.0453 8.964C89.7573 8.868 89.5293 8.676 89.3613 8.388C89.2653 8.796 89.0253 9.108 88.6413 9.324C88.2573 9.516 87.8733 9.552 87.4893 9.432C87.6093 9.768 87.6213 10.128 87.5253 10.512C87.4293 10.896 87.2493 11.22 86.9853 11.484C86.7213 11.748 86.3973 11.88 86.0133 11.88C86.3493 11.976 86.5893 12.18 86.7333 12.492C86.9013 12.804 86.9613 13.152 86.9133 13.536C86.8893 13.896 86.7693 14.208 86.5533 14.472C86.3613 14.736 86.0733 14.868 85.6893 14.868C86.1933 14.844 86.5293 14.916 86.6973 15.084C86.8653 15.252 86.8653 15.432 86.6973 15.624C86.5293 15.792 86.1933 15.876 85.6893 15.876C86.2653 15.852 86.6733 15.996 86.9133 16.308C87.1773 16.596 87.2733 16.932 87.2013 17.316C87.1533 17.7 86.9373 18 86.5533 18.216C86.9613 18.264 87.3453 18.504 87.7053 18.936C88.0653 19.368 88.2573 19.812 88.2813 20.268C88.6173 19.908 89.0973 19.788 89.7213 19.908C90.3693 20.004 91.1133 20.232 91.9533 20.592Z" fill="#7D5A5A"/>
</svg>
