<svg width="49" height="49" viewBox="0 0 49 49" fill="none" xmlns="http://www.w3.org/2000/svg">
<path d="M24.5 42.14C18.375 42.14 12.9605 39.004 9.8 34.3C9.8735 29.4 19.6 26.705 24.5 26.705C29.4 26.705 39.1265 29.4 39.2 34.3C37.5803 36.7118 35.3924 38.6883 32.8289 40.0555C30.2655 41.4226 27.4052 42.1385 24.5 42.14ZM24.5 7.35C26.4493 7.35 28.3188 8.12437 29.6972 9.50277C31.0756 10.8812 31.85 12.7507 31.85 14.7C31.85 16.6493 31.0756 18.5188 29.6972 19.8972C28.3188 21.2756 26.4493 22.05 24.5 22.05C22.5507 22.05 20.6812 21.2756 19.3028 19.8972C17.9244 18.5188 17.15 16.6493 17.15 14.7C17.15 12.7507 17.9244 10.8812 19.3028 9.50277C20.6812 8.12437 22.5507 7.35 24.5 7.35ZM24.5 0C21.2826 0 18.0967 0.633711 15.1243 1.86495C12.1518 3.09619 9.45092 4.90085 7.17588 7.17588C2.58124 11.7705 0 18.0022 0 24.5C0 30.9978 2.58124 37.2295 7.17588 41.8241C9.45092 44.0992 12.1518 45.9038 15.1243 47.1351C18.0967 48.3663 21.2826 49 24.5 49C30.9978 49 37.2295 46.4188 41.8241 41.8241C46.4188 37.2295 49 30.9978 49 24.5C49 10.9515 37.975 0 24.5 0Z" fill="#7D5A5A"/>
</svg>
