<svg width="50px" height="50px" viewBox="0 0 50 50" fill="none" xmlns="http://www.w3.org/2000/svg">
<path d="M26.5625 11.7188C26.5625 10.6371 26.8832 9.57981 27.4842 8.68048C28.0851 7.78115 28.9392 7.0802 29.9385 6.66629C30.9377 6.25237 32.0373 6.14407 33.0982 6.35508C34.159 6.5661 35.1334 7.08694 35.8982 7.85176C36.6631 8.61658 37.1839 9.59102 37.3949 10.6519C37.6059 11.7127 37.4976 12.8123 37.0837 13.8116C36.6698 14.8108 35.9689 15.6649 35.0695 16.2659C34.1702 16.8668 33.1129 17.1875 32.0313 17.1875C30.5824 17.1824 29.1944 16.6045 28.1699 15.5801C27.1455 14.5556 26.5676 13.1676 26.5625 11.7188ZM14.0625 21.0938C14.0625 20.0121 13.7418 18.9548 13.1409 18.0555C12.5399 17.1561 11.6858 16.4552 10.6866 16.0413C9.68727 15.6274 8.58769 15.5191 7.52685 15.7301C6.46602 15.9411 5.49158 16.4619 4.72676 17.2268C3.96194 17.9916 3.4411 18.966 3.23008 20.0269C3.01907 21.0877 3.12737 22.1873 3.54129 23.1866C3.9552 24.1858 4.65615 25.0399 5.55548 25.6409C6.45481 26.2418 7.51214 26.5625 8.59375 26.5625C10.0426 26.5574 11.4306 25.9795 12.4551 24.9551C13.4795 23.9306 14.0574 22.5426 14.0625 21.0938ZM17.9688 17.1875C19.0504 17.1875 20.1077 16.8668 21.007 16.2659C21.9064 15.6649 22.6073 14.8108 23.0212 13.8116C23.4351 12.8123 23.5434 11.7127 23.3324 10.6519C23.1214 9.59102 22.6006 8.61658 21.8357 7.85176C21.0709 7.08694 20.0965 6.5661 19.0357 6.35508C17.9748 6.14407 16.8752 6.25237 15.876 6.66629C14.8767 7.0802 14.0226 7.78115 13.4217 8.68048C12.8207 9.57981 12.5 10.6371 12.5 11.7188C12.5051 13.1676 13.083 14.5556 14.1074 15.5801C15.1319 16.6045 16.5199 17.1824 17.9688 17.1875ZM36.543 29.0625C35.749 28.6261 35.0488 28.0376 34.4824 27.3305C33.9161 26.6233 33.4946 25.8115 33.2422 24.9414C32.7291 23.1516 31.6473 21.5774 30.1603 20.4568C28.6733 19.3362 26.8619 18.7301 25 18.7301C23.1381 18.7301 21.3267 19.3362 19.8397 20.4568C18.3528 21.5774 17.2709 23.1516 16.7578 24.9414C16.2488 26.6933 15.0699 28.174 13.4766 29.0625C11.9463 29.8885 10.7353 31.2014 10.0354 32.7934C9.33555 34.3853 9.18684 36.1653 9.61282 37.8513C10.0388 39.5373 11.0151 41.033 12.3872 42.1014C13.7592 43.1699 15.4485 43.75 17.1875 43.75C18.2266 43.749 19.2553 43.5432 20.2148 43.1445C23.2712 41.8784 26.7041 41.8713 29.7656 43.125C30.7285 43.5375 31.765 43.7501 32.8125 43.75C34.5532 43.7544 36.2455 43.1774 37.6208 42.1105C38.9962 41.0435 39.9759 39.5479 40.4044 37.8608C40.8329 36.1736 40.6857 34.3918 39.9861 32.7978C39.2866 31.2039 38.0748 29.8893 36.543 29.0625ZM41.4063 15.625C40.3246 15.625 39.2673 15.9457 38.368 16.5467C37.4686 17.1476 36.7677 18.0017 36.3538 19.001C35.9399 20.0002 35.8316 21.0998 36.0426 22.1607C36.2536 23.2215 36.7744 24.1959 37.5393 24.9607C38.3041 25.7256 39.2785 26.2464 40.3394 26.4574C41.4002 26.6684 42.4998 26.5601 43.4991 26.1462C44.4983 25.7323 45.3524 25.0314 45.9534 24.132C46.5543 23.2327 46.875 22.1754 46.875 21.0938C46.8699 19.6449 46.292 18.2569 45.2676 17.2324C44.2431 16.208 42.8551 15.6301 41.4063 15.625Z" fill="#7D5A5A"/>
</svg>
