<svg width="28" height="28" viewBox="0 0 50 50" fill="none" xmlns="http://www.w3.org/2000/svg">
<path d="M25 23.9584C23.6186 23.9584 22.2939 23.4097 21.3171 22.4329C20.3404 21.4562 19.7916 20.1314 19.7916 18.7501C19.7916 17.3687 20.3404 16.044 21.3171 15.0672C22.2939 14.0905 23.6186 13.5417 25 13.5417C26.3813 13.5417 27.7061 14.0905 28.6828 15.0672C29.6596 16.044 30.2083 17.3687 30.2083 18.7501C30.2083 19.4341 30.0736 20.1113 29.8118 20.7432C29.5501 21.3751 29.1664 21.9493 28.6828 22.4329C28.1992 22.9166 27.625 23.3002 26.9931 23.562C26.3612 23.8237 25.6839 23.9584 25 23.9584ZM25 4.16675C21.1322 4.16675 17.4229 5.7032 14.688 8.43811C11.9531 11.173 10.4166 14.8823 10.4166 18.7501C10.4166 29.6876 25 45.8334 25 45.8334C25 45.8334 39.5833 29.6876 39.5833 18.7501C39.5833 14.8823 38.0468 11.173 35.3119 8.43811C32.577 5.7032 28.8677 4.16675 25 4.16675Z" fill="#7D5A5A"/>
</svg>
