<svg width="36" height="36" viewBox="0 0 36 36" fill="none" xmlns="http://www.w3.org/2000/svg">
<path d="M29.475 13.56L22.215 12.93L19.38 6.255C18.87 5.04 17.13 5.04 16.62 6.255L13.785 12.945L6.53999 13.56C5.21999 13.665 4.67999 15.315 5.68499 16.185L11.19 20.955L9.53999 28.035C9.23999 29.325 10.635 30.345 11.775 29.655L18 25.905L24.225 29.67C25.365 30.36 26.76 29.34 26.46 28.05L24.81 20.955L30.315 16.185C31.32 15.315 30.795 13.665 29.475 13.56ZM18 23.1L12.36 26.505L13.86 20.085L8.87999 15.765L15.45 15.195L18 9.15L20.565 15.21L27.135 15.78L22.155 20.1L23.655 26.52L18 23.1Z" fill="#7D5A5A"/>
</svg>
