<svg width="51" height="60" viewBox="0 0 51 60" fill="none" xmlns="http://www.w3.org/2000/svg">
<path d="M40.8411 29.0348C40.782 28.9461 40.8455 28.8273 40.9521 28.8273V28.8273C43.4771 28.8273 44.9422 25.9906 43.5082 23.9332L27.6725 1.33306C27.3852 0.921487 27.0028 0.585371 26.5578 0.353283C26.1128 0.121196 25.6183 0 25.1164 0C24.6144 0 24.1199 0.121196 23.6749 0.353283C23.2299 0.585371 22.8475 0.921487 22.5602 1.33306L6.84918 23.9332C5.41523 25.9906 6.91152 28.8273 9.43651 28.8273V28.8273C9.49019 28.8273 9.52249 28.8869 9.49323 28.9319L0.521127 42.7303C-0.85047 44.7877 0.645816 47.5309 3.13963 47.5309H12.6785C16.1561 47.5309 18.9753 50.3501 18.9753 53.8278V53.8278C18.9753 57.2256 21.7497 60 25.1475 60C28.5453 60 31.3197 57.2256 31.3197 53.8278V53.8278C31.3197 50.3501 34.1389 47.5309 37.6166 47.5309H47.3736C49.8674 47.5309 51.3637 44.7566 49.961 42.6992L40.8411 29.0348Z" fill="#5B8A72"/>
</svg>
