<svg width="28" height="28" viewBox="0 0 50 50" fill="none" xmlns="http://www.w3.org/2000/svg">
<path d="M41.5625 43.75C37.0833 43.75 32.7174 42.7514 28.4646 40.7542C24.2104 38.7583 20.4431 36.1194 17.1625 32.8375C13.8806 29.5569 11.2417 25.7896 9.24583 21.5354C7.24861 17.2826 6.25 12.9167 6.25 8.4375C6.25 7.8125 6.45833 7.29167 6.875 6.875C7.29167 6.45833 7.8125 6.25 8.4375 6.25H16.875C17.3611 6.25 17.7951 6.40625 18.1771 6.71875C18.559 7.03125 18.7847 7.43056 18.8542 7.91667L20.2083 15.2083C20.2778 15.6944 20.2694 16.1368 20.1833 16.5354C20.0958 16.9354 19.8958 17.2917 19.5833 17.6042L14.5833 22.7083C16.0417 25.2083 17.8646 27.5521 20.0521 29.7396C22.2396 31.9271 24.6528 33.8194 27.2917 35.4167L32.1875 30.5208C32.5 30.2083 32.9083 29.9736 33.4125 29.8167C33.9153 29.6611 34.4097 29.6181 34.8958 29.6875L42.0833 31.1458C42.5694 31.25 42.9687 31.484 43.2812 31.8479C43.5937 32.2132 43.75 32.6389 43.75 33.125V41.5625C43.75 42.1875 43.5417 42.7083 43.125 43.125C42.7083 43.5417 42.1875 43.75 41.5625 43.75Z" fill="#7D5A5A"/>
</svg>
