<svg width="61" height="60" viewBox="0 0 61 60" fill="none" xmlns="http://www.w3.org/2000/svg">
<path d="M0.0163574 41.0526C5.02636 38.6842 10.0064 36.3158 15.0164 35.2737V9.47368C15.0164 6.96111 15.9646 4.55144 17.6524 2.77478C19.3402 0.998118 21.6294 0 24.0164 0C27.9464 0 31.2764 2.62105 32.5064 6.31579H24.0164C23.2207 6.31579 22.4576 6.6485 21.895 7.24072C21.3324 7.83294 21.0164 8.63616 21.0164 9.47368V12.6316H36.0164V9.47368C36.0164 6.96111 36.9646 4.55144 38.6524 2.77478C40.3402 0.998118 42.6294 0 45.0164 0C48.9464 0 52.2764 2.62105 53.5064 6.31579H45.0164C44.2207 6.31579 43.4576 6.6485 42.895 7.24072C42.3324 7.83294 42.0164 8.63616 42.0164 9.47368V40.8632C48.0164 39.8526 54.0164 34.7368 60.0164 34.7368V41.0526C53.3564 41.0526 46.6964 47.3684 40.0064 47.3684C33.3464 47.3684 26.6864 41.0526 20.0264 41.0526C13.3364 41.0526 6.67636 44.2105 0.0163574 47.3684V41.0526ZM36.0164 18.9474H21.0164V25.2632H36.0164V18.9474ZM36.0164 31.5789H21.0164V34.7368C26.0264 35.2421 31.0064 38.8737 36.0164 40.3895V31.5789ZM0.0163574 53.6842C6.67636 50.5263 13.3364 47.3684 20.0264 47.3684C26.6864 47.3684 33.3464 53.6842 40.0064 53.6842C46.6964 53.6842 53.3564 47.3684 60.0164 47.3684V53.6842C53.3564 53.6842 46.6964 60 40.0064 60C33.3464 60 26.6864 53.6842 20.0264 53.6842C13.3364 53.6842 6.67636 56.8421 0.0163574 60V53.6842Z" fill="#6CB2F2"/>
</svg>
