<svg width="55" height="60" viewBox="0 0 55 60" fill="none" xmlns="http://www.w3.org/2000/svg">
<path d="M6.7623 60C4.90266 60 3.31127 59.3291 1.98811 57.9874C0.662704 56.6434 0 55.0286 0 53.1429V22.2857C0 21.2 0.240061 20.1714 0.720184 19.2C1.19805 18.2286 1.85963 17.4286 2.70492 16.8L22.9918 1.37143C24.1752 0.457143 25.5277 0 27.0492 0C28.5707 0 29.9232 0.457143 31.1066 1.37143L51.3934 16.8C52.2387 17.4286 52.9014 18.2286 53.3816 19.2C53.8594 20.1714 54.0984 21.2 54.0984 22.2857V53.1429C54.0984 55.0286 53.4368 56.6434 52.1136 57.9874C50.7882 59.3291 49.1957 60 47.3361 60H6.7623ZM20.2869 36V48C20.2869 48.4571 20.4559 48.8571 20.7941 49.2C21.1322 49.5429 21.5266 49.7143 21.9775 49.7143C22.4283 49.7143 22.8227 49.5429 23.1609 49.2C23.499 48.8571 23.668 48.4571 23.668 48V36C25.0768 36 26.2738 35.4994 27.2588 34.4983C28.2461 33.4994 28.7398 32.2857 28.7398 30.8571V22.2857C28.7398 21.8286 28.5707 21.4286 28.2326 21.0857C27.8945 20.7429 27.5 20.5714 27.0492 20.5714C26.5984 20.5714 26.2039 20.7429 25.8658 21.0857C25.5277 21.4286 25.3586 21.8286 25.3586 22.2857V30.8571H23.668V22.2857C23.668 21.8286 23.499 21.4286 23.1609 21.0857C22.8227 20.7429 22.4283 20.5714 21.9775 20.5714C21.5266 20.5714 21.1322 20.7429 20.7941 21.0857C20.4559 21.4286 20.2869 21.8286 20.2869 22.2857V30.8571H18.5963V22.2857C18.5963 21.8286 18.4273 21.4286 18.0891 21.0857C17.751 20.7429 17.3566 20.5714 16.9057 20.5714C16.4549 20.5714 16.0604 20.7429 15.7223 21.0857C15.3842 21.4286 15.2152 21.8286 15.2152 22.2857V30.8571C15.2152 32.2857 15.7088 33.4994 16.6961 34.4983C17.6811 35.4994 18.8781 36 20.2869 36ZM35.502 49.7143C35.9529 49.7143 36.3473 49.5429 36.6855 49.2C37.0236 48.8571 37.1926 48.4571 37.1926 48V22.6286C37.1926 22.1714 37.0236 21.7714 36.6855 21.4286C36.3473 21.0857 35.9529 20.9143 35.502 20.9143C33.9242 20.9143 32.6844 21.5714 31.7828 22.8857C30.8811 24.2 30.4303 25.7143 30.4303 27.4286V36C30.4303 36.4571 30.5994 36.8571 30.9375 37.2C31.2756 37.5429 31.6701 37.7143 32.1209 37.7143H33.8115V48C33.8115 48.4571 33.9805 48.8571 34.3186 49.2C34.6568 49.5429 35.0512 49.7143 35.502 49.7143Z" fill="#FEA572"/>
</svg>
