<svg width="50" height="50" viewBox="0 0 50 50" fill="none" xmlns="http://www.w3.org/2000/svg">
<path d="M24.8125 4C13.3125 4 4 13.3333 4 24.8333C4 36.3333 13.3125 45.6667 24.8125 45.6667C36.3333 45.6667 45.6667 36.3333 45.6667 24.8333C45.6667 13.3333 36.3333 4 24.8125 4ZM33.1667 33.1667C32.9739 33.3598 32.745 33.513 32.493 33.6176C32.2409 33.7221 31.9708 33.7759 31.6979 33.7759C31.4251 33.7759 31.1549 33.7221 30.9029 33.6176C30.6508 33.513 30.4219 33.3598 30.2292 33.1667L23.375 26.3125C23.1782 26.1196 23.0215 25.8895 22.9143 25.6356C22.807 25.3816 22.7511 25.109 22.75 24.8333V16.5C22.75 15.3542 23.6875 14.4167 24.8333 14.4167C25.9792 14.4167 26.9167 15.3542 26.9167 16.5V23.9792L33.1667 30.2292C33.9792 31.0417 33.9792 32.3542 33.1667 33.1667Z" fill="#7D5A5A"/>
</svg>
